<?xml version="1.0" standalone="no"?>
<!DOCTYPE svg PUBLIC "-//W3C//DTD SVG 20010904//EN"
 "http://www.w3.org/TR/2001/REC-SVG-20010904/DTD/svg10.dtd">
<svg version="1.0" xmlns="http://www.w3.org/2000/svg"
 width="375.000000pt" height="395.000000pt" viewBox="0 0 375.000000 395.000000"
 preserveAspectRatio="xMidYMid meet">

<g transform="translate(0.000000,395.000000) scale(0.100000,-0.100000)"
fill="#000000" stroke="none">
<path d="M63 3933 c13 -13 21 -14 41 -5 16 7 26 7 28 1 2 -6 10 -4 21 3 15 11
9 13 -45 15 -57 2 -60 1 -45 -14z"/>
<path d="M1338 3943 c7 -3 16 -2 19 1 4 3 -2 6 -13 5 -11 0 -14 -3 -6 -6z"/>
<path d="M1567 3943 c-12 -20 -61 -295 -97 -544 -16 -111 -28 -149 -48 -149
-9 0 -45 30 -80 68 l-63 67 38 35 c21 19 60 54 88 77 l50 43 -21 20 c-20 21
-21 24 -8 103 7 45 16 110 19 143 8 91 2 93 -142 48 -65 -20 -123 -41 -130
-46 -7 -6 -23 6 -48 37 -35 42 -41 45 -84 45 -25 -1 -57 -7 -71 -15 -14 -8
-41 -15 -60 -15 l-35 -1 33 -14 c19 -8 32 -20 29 -27 -5 -17 -152 -12 -231 8
-32 8 -60 13 -62 11 -9 -9 97 -37 143 -38 67 -2 106 -12 111 -28 4 -11 -8 -13
-64 -9 l-69 5 52 -16 c29 -9 55 -20 59 -24 17 -16 -119 -5 -215 18 -57 14
-105 24 -107 23 -7 -8 -106 -219 -103 -221 23 -17 93 -38 127 -39 53 -2 115
-48 65 -48 -15 0 -16 -2 -3 -10 18 -12 33 -13 27 -2 -3 4 -1 16 4 27 6 17 8
15 8 -11 1 -22 9 -37 26 -48 l25 -17 -5 43 c-5 38 -4 40 6 16 9 -24 65 -55 77
-43 8 8 57 -23 91 -59 30 -30 42 -36 78 -36 30 0 45 5 49 15 4 8 12 15 20 15
8 0 14 5 14 10 0 15 26 12 40 -5 7 -8 20 -15 30 -15 10 0 23 -7 30 -15 17 -21
25 -19 63 15 19 17 39 30 45 30 6 0 34 -27 63 -60 54 -62 89 -81 113 -61 17
14 42 124 55 241 13 113 48 320 67 394 14 53 14 80 1 59z m-201 -196 c-16 -82
-31 -103 -22 -29 7 53 6 53 -16 46 -40 -13 -72 -10 -76 8 -2 13 11 19 60 31
35 8 64 14 65 13 1 -1 -4 -32 -11 -69z m-306 -361 c0 -3 -4 -8 -10 -11 -5 -3
-10 -1 -10 4 0 6 5 11 10 11 6 0 10 -2 10 -4z"/>
<path d="M1845 3810 l-69 -140 34 -29 c24 -20 37 -25 43 -17 4 7 9 3 13 -12 5
-16 12 -22 25 -19 10 3 27 -5 40 -19 12 -13 40 -36 63 -51 22 -15 66 -47 96
-70 30 -24 65 -43 76 -43 13 0 24 -8 27 -20 7 -29 37 -14 37 19 1 24 2 25 14
8 11 -14 15 -15 19 -5 4 11 6 11 6 0 1 -7 5 -11 11 -7 5 3 18 -3 30 -15 11
-11 20 -16 20 -12 0 15 40 8 41 -8 0 -10 2 -11 6 -3 3 10 11 9 33 -2 16 -8 37
-16 47 -18 10 -2 28 -9 41 -15 12 -7 22 -9 22 -5 0 4 4 2 8 -4 11 -18 100 -34
106 -19 2 6 5 3 5 -8 1 -12 6 -16 17 -12 12 5 15 2 10 -9 -4 -11 -2 -14 7 -8
20 12 40 13 56 0 12 -9 13 -9 7 1 -4 7 -2 12 4 12 7 0 9 9 5 23 -4 14 -3 17 2
10 7 -10 15 -10 36 0 19 8 43 43 83 120 53 103 55 109 37 123 -17 14 -17 15 3
5 18 -9 23 -5 37 24 l17 35 -30 15 c-17 9 -30 13 -30 9 0 -4 -7 0 -16 7 -9 7
-23 14 -32 15 -8 2 -18 7 -21 12 -12 18 -149 79 -143 64 4 -12 0 -14 -24 -8
-28 7 -28 7 -9 -9 19 -16 19 -16 -4 -4 -22 11 -23 13 -8 24 21 15 22 29 3 44
-16 13 -69 4 -60 -10 9 -15 -14 -10 -55 11 -21 10 -42 16 -46 12 -5 -4 -5 -2
-2 4 9 16 -36 45 -53 34 -17 -11 -46 4 -60 30 -10 18 -9 19 27 4 21 -8 48 -20
59 -25 12 -6 37 -12 55 -13 19 -2 43 -6 54 -11 13 -5 17 -5 10 2 -10 10 -143
61 -181 68 -12 3 -47 16 -78 30 -53 24 -67 25 -229 25 l-173 0 -69 -140z m355
20 c0 -5 5 -10 10 -10 6 0 40 -20 77 -45 36 -25 61 -45 57 -45 -19 0 -144 67
-138 73 4 4 -1 9 -10 13 -17 7 -22 24 -6 24 6 0 10 -4 10 -10z m340 -104 c0
-13 107 -119 165 -163 22 -17 63 -42 90 -57 51 -28 48 -27 -41 4 -47 17 -92
38 -104 50 -7 7 -41 26 -109 60 -32 16 -75 43 -97 60 -21 16 -48 37 -59 45
-10 8 -14 15 -7 15 7 0 21 -9 32 -20 24 -24 29 -24 55 -4 16 12 17 18 8 33
-11 18 -10 18 28 3 21 -8 39 -20 39 -26z m-80 0 c0 -3 -4 -8 -10 -11 -5 -3
-10 -1 -10 4 0 6 5 11 10 11 6 0 10 -2 10 -4z m179 -22 c14 -12 -19 -1 -35 12
-18 14 -18 14 6 3 14 -6 27 -13 29 -15z m181 -46 c11 -7 9 -8 -8 -4 -23 4 -23
4 -6 -15 15 -17 15 -19 1 -19 -9 0 -24 14 -32 31 -16 31 -16 31 7 24 13 -4 30
-12 38 -17z m-600 -22 c0 -7 -9 -25 -21 -40 -17 -21 -24 -24 -35 -15 -10 8
-14 8 -14 0 0 -6 -4 -11 -10 -11 -5 0 -7 7 -4 15 5 12 0 14 -25 9 -20 -4 -31
-3 -31 5 0 6 6 11 14 11 8 0 17 8 21 18 6 16 7 16 16 -1 8 -14 14 -16 25 -6
11 9 14 8 15 -7 0 -16 4 -15 22 9 24 31 27 32 27 13z m30 -10 c0 -2 -8 -23
-19 -46 -13 -30 -20 -37 -25 -25 -7 18 19 75 34 75 6 0 10 -2 10 -4z m80 -62
c0 -2 -7 -4 -15 -4 -8 0 -15 4 -15 10 0 5 7 7 15 4 8 -4 15 -8 15 -10z m-50
-8 c0 -20 40 -32 51 -15 10 17 23 5 16 -16 -4 -8 -17 -15 -29 -15 -32 0 -69
27 -62 45 8 19 24 19 24 1z m-113 -38 c-3 -7 -5 -2 -5 12 0 14 2 19 5 13 2 -7
2 -19 0 -25z m224 5 c0 -28 1 -28 11 -5 12 24 34 31 24 7 -3 -8 -9 -23 -13
-32 -5 -12 -2 -15 10 -10 12 4 17 1 17 -9 0 -10 6 -14 15 -10 8 3 15 1 15 -5
0 -6 4 -8 9 -4 5 3 12 1 16 -4 3 -6 13 -7 21 -4 14 5 15 3 5 -15 -14 -26 -12
-26 -47 -7 -16 8 -36 12 -46 9 -9 -2 -19 0 -23 6 -3 5 0 10 7 10 16 0 -21 26
-45 31 -10 2 -17 9 -15 14 2 6 6 9 11 8 4 -2 7 8 7 22 0 34 20 32 21 -2z
m-184 -30 c-3 -10 -5 -4 -5 12 0 17 2 24 5 18 2 -7 2 -21 0 -30z m300 -30 c-3
-3 -11 -2 -17 2 -9 6 -9 10 1 16 14 8 27 -7 16 -18z m-350 -35 c-3 -8 -6 -5
-6 6 -1 11 2 17 5 13 3 -3 4 -12 1 -19z m57 -23 c-4 -8 -8 -15 -10 -15 -2 0
-4 7 -4 15 0 8 4 15 10 15 5 0 7 -7 4 -15z"/>
<path d="M3720 3940 c19 -13 30 -13 30 0 0 6 -10 10 -22 10 -19 0 -20 -2 -8
-10z"/>
<path d="M2370 3920 c14 -4 32 -8 40 -9 13 -1 13 0 0 9 -8 5 -26 9 -40 9 l-25
-1 25 -8z"/>
<path d="M690 3895 c14 -8 36 -14 50 -14 22 0 21 2 -10 14 -47 18 -71 18 -40
0z"/>
<path d="M2437 3899 c7 -7 15 -10 18 -7 3 3 -2 9 -12 12 -14 6 -15 5 -6 -5z"/>
<path d="M610 3871 c0 -10 61 -21 105 -20 30 1 30 1 -5 9 -74 16 -100 19 -100
11z"/>
<path d="M590 3826 c0 -8 112 -47 123 -43 6 2 -17 13 -50 25 -61 22 -73 25
-73 18z"/>
<path d="M3600 3787 c0 -8 -12 -31 -26 -52 -23 -34 -27 -68 -7 -63 4 1 25 -14
45 -33 21 -19 60 -44 88 -56 l50 -21 0 97 0 97 -35 17 c-44 21 -46 21 -38 1 5
-13 -1 -12 -36 5 -31 16 -41 18 -41 8z"/>
<path d="M124 3763 c2 -10 7 -28 11 -41 4 -12 24 -31 45 -42 45 -23 54 -25 44
-9 -3 6 0 15 7 20 11 7 11 9 1 9 -7 0 -11 4 -8 9 16 26 -38 71 -84 71 -16 0
-20 -5 -16 -17z"/>
<path d="M2842 3279 c-134 -264 -242 -482 -240 -483 1 -2 134 -69 293 -151
160 -81 372 -190 471 -241 100 -52 186 -94 190 -94 5 0 51 83 102 185 l92 185
0 227 c0 218 -1 226 -18 210 -22 -20 -53 -24 -34 -5 7 7 12 23 12 36 0 21 -2
22 -15 12 -8 -7 -12 -16 -9 -21 3 -5 1 -9 -4 -9 -17 0 -21 13 -11 31 8 16 6
19 -10 19 -11 0 -21 -6 -24 -12 -2 -7 -7 -10 -11 -6 -4 3 -3 16 4 27 9 18 14
19 31 10 12 -6 23 -8 26 -6 7 7 43 -31 43 -45 0 -8 3 -9 10 -2 7 7 10 63 8
148 l-3 138 -320 164 c-176 90 -324 164 -330 164 -5 0 -120 -217 -253 -481z
m302 119 c6 -4 13 -2 17 4 4 7 13 7 27 -1 31 -16 51 -13 28 4 -16 12 -16 15
-4 15 21 0 52 -36 43 -50 -5 -9 -1 -10 14 -5 16 5 21 2 21 -12 1 -14 6 -12 26
12 18 21 24 24 19 10 -14 -38 -10 -50 15 -53 24 -3 25 -3 5 12 -17 13 -18 15
-3 16 9 0 18 3 21 8 2 4 2 2 1 -5 -2 -6 4 -17 12 -24 8 -7 13 -18 10 -26 -10
-25 11 -13 24 15 7 16 14 22 17 14 3 -7 -2 -24 -11 -37 l-16 -25 -56 30 c-38
21 -62 28 -79 24 -15 -4 -25 -2 -25 5 0 6 8 8 18 5 9 -3 -1 5 -23 19 -22 14
-47 26 -55 27 -32 5 -61 0 -55 -10 4 -6 -1 -7 -11 -3 -12 4 -14 8 -6 11 10 3
10 7 2 18 -7 7 -8 19 -4 26 6 9 9 9 12 -2 3 -8 10 -18 16 -22z m315 -102 c-13
-28 -4 -50 11 -26 5 8 13 11 17 6 4 -4 0 -13 -10 -20 -9 -7 -17 -19 -17 -27 0
-8 -7 -1 -15 14 -13 25 -13 32 1 59 19 36 30 31 13 -6z m105 -22 c9 -3 16 -14
16 -24 0 -10 9 -20 20 -23 21 -5 25 -23 12 -45 -15 -22 -44 -3 -38 24 5 20 3
24 -18 24 -13 0 -26 -6 -29 -12 -2 -7 -7 -10 -11 -6 -7 6 19 68 28 68 3 0 11
-3 20 -6z m-353 -384 c14 -8 19 -21 19 -53 -1 -65 -16 -77 -86 -72 -32 2 -65
4 -71 4 -24 2 -15 67 13 100 21 25 33 31 66 31 21 0 48 -5 59 -10z"/>
<path d="M0 3660 l0 -60 45 0 c25 0 45 5 45 11 0 5 8 9 18 8 9 -2 28 1 41 5
21 7 15 12 -58 52 -44 24 -83 44 -86 44 -3 0 -5 -27 -5 -60z"/>
<path d="M1760 3622 c0 -5 6 -9 13 -9 6 0 21 -4 32 -7 13 -5 12 -2 -5 8 -29
17 -40 20 -40 8z"/>
<path d="M224 3589 c-3 -6 -3 -14 2 -18 5 -3 9 -17 8 -31 -2 -74 -4 -80 -24
-80 -11 0 -20 -4 -20 -10 0 -5 -11 -10 -24 -10 -15 0 -26 -7 -29 -20 -4 -17
-2 -20 15 -14 15 4 27 -1 44 -21 13 -16 24 -34 24 -42 0 -7 6 -13 14 -13 8 0
16 -9 18 -19 2 -12 26 24 66 100 l62 119 -70 35 c-79 40 -76 39 -86 24z"/>
<path d="M1713 3533 c-3 -10 -8 -21 -10 -25 -2 -4 2 -10 8 -14 8 -4 9 -3 5 4
-4 7 -3 12 1 12 5 0 9 9 9 20 0 25 -5 26 -13 3z"/>
<path d="M1684 3458 l-19 -23 23 19 c21 18 27 26 19 26 -2 0 -12 -10 -23 -22z"/>
<path d="M1750 3466 c0 -3 9 -10 20 -16 11 -6 20 -8 20 -6 0 3 -9 10 -20 16
-11 6 -20 8 -20 6z"/>
<path d="M20 3435 c-10 -11 -10 -18 -1 -29 10 -11 9 -16 -4 -24 -10 -5 -15
-18 -13 -32 3 -22 3 -22 25 -4 14 12 23 33 25 58 3 42 -11 56 -32 31z"/>
<path d="M1710 3425 c-9 -11 -17 -12 -32 -4 -15 8 -19 8 -14 0 4 -6 0 -11 -11
-12 -12 0 -8 -4 11 -11 22 -8 30 -7 37 3 7 12 9 11 9 -1 0 -8 -8 -20 -18 -25
-10 -6 -35 -21 -56 -34 -36 -23 -37 -25 -17 -32 11 -5 29 -5 39 -2 15 6 16 5
2 -12 -13 -16 -13 -18 0 -10 8 5 30 12 50 16 l35 7 -33 1 c-18 0 -31 5 -28 10
3 5 14 8 24 6 9 -1 11 0 4 2 -11 4 -10 9 4 24 24 27 10 24 -18 -4 -24 -24 -58
-41 -58 -29 0 4 18 20 40 36 40 30 58 56 38 56 -7 0 -6 5 2 15 7 8 10 15 7 15
-2 0 -10 -7 -17 -15z"/>
<path d="M1633 3384 c3 -4 -1 -13 -9 -21 -22 -22 -8 -29 16 -8 24 22 26 35 3
35 -9 0 -14 -3 -10 -6z"/>
<path d="M2240 3367 c0 -18 58 -59 72 -51 4 3 8 0 8 -5 0 -6 7 -11 15 -11 17
0 18 14 5 45 -8 18 -9 18 -9 2 -1 -12 -7 -17 -18 -15 -10 2 -17 9 -16 16 2 7
-4 9 -14 5 -9 -4 -21 1 -29 12 -13 17 -14 17 -14 2z"/>
<path d="M1778 3349 c-16 -11 -28 -26 -28 -32 0 -6 6 -4 13 5 6 8 23 22 37 32
13 9 20 16 15 16 -6 0 -22 -10 -37 -21z"/>
<path d="M1740 3350 c-9 -6 -10 -10 -3 -10 6 0 15 5 18 10 8 12 4 12 -15 0z"/>
<path d="M1789 3323 c-13 -16 -12 -17 4 -4 9 7 17 15 17 17 0 8 -8 3 -21 -13z"/>
<path d="M2370 3310 c-13 -8 -12 -10 3 -10 9 0 17 5 17 10 0 12 -1 12 -20 0z"/>
<path d="M1758 3293 c7 -3 16 -2 19 1 4 3 -2 6 -13 5 -11 0 -14 -3 -6 -6z"/>
<path d="M2390 3290 c-11 -8 -7 -9 14 -4 19 5 27 3 23 -3 -4 -6 0 -14 9 -17
22 -8 24 -8 22 7 -6 26 -41 35 -68 17z"/>
<path d="M1680 3280 c-18 -12 -2 -12 25 0 13 6 15 9 5 9 -8 0 -22 -4 -30 -9z"/>
<path d="M1714 3264 c-19 -15 -19 -15 1 -6 11 5 27 12 35 15 13 5 13 6 -1 6
-8 1 -24 -6 -35 -15z"/>
<path d="M2487 3261 c9 -12 22 -21 28 -21 5 0 4 4 -3 9 -8 4 -13 12 -12 17 0
5 -6 11 -15 12 -14 3 -14 1 2 -17z"/>
<path d="M318 3225 c5 -44 -5 -46 -16 -2 -8 31 -10 30 -70 -90 -50 -100 -59
-123 -44 -123 25 0 46 16 38 29 -5 7 3 11 23 11 21 0 39 10 60 33 32 33 36 51
25 131 -8 53 -22 64 -16 11z m-41 -157 c-3 -8 -6 -5 -6 6 -1 11 2 17 5 13 3
-3 4 -12 1 -19z"/>
<path d="M2544 3253 c15 -4 16 -7 5 -15 -11 -8 -10 -9 4 -4 9 3 17 1 17 -5 0
-6 5 -7 10 -4 6 3 14 -4 18 -16 7 -17 11 -19 17 -9 5 9 4 15 -3 18 -7 2 -10 7
-7 12 5 8 -49 31 -69 29 -6 -1 -2 -4 8 -6z"/>
<path d="M1815 3240 c-3 -5 -1 -10 4 -10 6 0 11 5 11 10 0 6 -2 10 -4 10 -3 0
-8 -4 -11 -10z"/>
<path d="M1855 3239 c-4 -6 -5 -12 -2 -15 2 -3 7 2 10 11 7 17 1 20 -8 4z"/>
<path d="M1850 3200 c-9 -6 -10 -10 -3 -10 6 0 15 5 18 10 8 12 4 12 -15 0z"/>
<path d="M2427 3199 c12 -15 73 -53 73 -46 0 2 -19 17 -42 32 -24 16 -38 22
-31 14z"/>
<path d="M361 3169 c-1 -21 -10 -48 -22 -63 -24 -30 -20 -43 8 -28 10 5 25 7
33 5 11 -3 12 -2 2 5 -7 5 -10 15 -7 23 3 8 1 33 -4 54 l-9 40 -1 -36z"/>
<path d="M1876 3183 c-6 -14 -5 -15 5 -6 7 7 10 15 7 18 -3 3 -9 -2 -12 -12z"/>
<path d="M1910 3180 c-6 -11 -8 -20 -6 -20 3 0 10 9 16 20 6 11 8 20 6 20 -3
0 -10 -9 -16 -20z"/>
<path d="M2645 3182 l20 -4 -20 -9 c-19 -7 -19 -8 3 -8 19 -1 21 -3 10 -21
-16 -25 -4 -37 17 -16 21 21 26 20 19 -1 -4 -12 1 -9 15 7 27 33 26 50 -3 50
-13 0 -36 2 -52 4 -16 2 -20 1 -9 -2z m62 -18 c-3 -3 -12 -4 -19 -1 -8 3 -5 6
6 6 11 1 17 -2 13 -5z"/>
<path d="M14 3160 c-17 -39 14 -120 46 -120 16 0 51 20 36 20 -5 0 -3 7 4 15
7 8 9 15 5 15 -4 0 -2 7 5 15 10 13 9 15 -8 15 -12 0 -24 -4 -27 -10 -3 -5
-15 -10 -25 -10 -15 0 -20 9 -22 43 -4 40 -4 41 -14 17z"/>
<path d="M1938 3158 c-10 -10 -14 -18 -9 -18 10 0 36 29 30 34 -2 1 -12 -6
-21 -16z"/>
<path d="M2537 3129 c7 -7 15 -10 18 -7 3 3 -2 9 -12 12 -14 6 -15 5 -6 -5z"/>
<path d="M682 3108 c5 -15 28 -23 28 -10 0 5 -7 13 -16 16 -10 4 -14 1 -12 -6z"/>
<path d="M647 3093 c-17 -17 -1 -33 72 -71 44 -23 84 -42 90 -42 6 0 17 14 26
30 18 35 11 39 -16 8 l-18 -23 8 32 c7 25 6 33 -6 37 -11 5 -13 2 -9 -11 4
-10 4 -14 0 -10 -4 4 -16 0 -26 -10 -17 -15 -18 -15 -18 6 0 26 -25 38 -45 21
-14 -12 -20 -7 -16 14 3 17 -30 32 -42 19z"/>
<path d="M2600 3091 c0 -10 19 -25 25 -20 1 2 -3 10 -11 17 -8 7 -14 8 -14 3z"/>
<path d="M2666 3087 c3 -10 9 -15 12 -12 3 3 0 11 -7 18 -10 9 -11 8 -5 -6z"/>
<path d="M434 3079 c-3 -5 -14 -9 -25 -9 -14 0 -19 -6 -17 -17 2 -12 14 -18
40 -19 30 -2 38 1 43 17 4 11 4 23 1 27 -11 10 -36 11 -42 1z"/>
<path d="M2645 3060 c3 -5 11 -10 16 -10 6 0 7 5 4 10 -3 6 -11 10 -16 10 -6
0 -7 -4 -4 -10z"/>
<path d="M852 3005 c-18 -40 -15 -52 19 -64 43 -15 45 -14 23 10 -19 22 -19
22 5 14 17 -5 22 -4 19 6 -5 17 -48 25 -48 10 0 -6 -5 -11 -10 -11 -6 0 -4 13
5 30 9 17 12 30 7 30 -5 0 -14 -11 -20 -25z"/>
<path d="M146 2964 c-5 -12 -2 -15 10 -10 8 3 18 6 20 6 2 0 4 5 4 10 0 16
-27 11 -34 -6z"/>
<path d="M337 2958 c-22 -10 -42 -16 -44 -14 -3 3 -24 -6 -48 -20 -28 -15 -60
-24 -88 -24 -40 0 -46 -3 -60 -32 -14 -29 -14 -35 -1 -48 12 -13 16 -13 23 -1
7 11 10 11 17 -1 9 -14 56 -38 75 -38 6 0 8 4 5 9 -4 5 0 12 6 15 7 3 0 3 -17
0 -26 -5 -28 -4 -14 8 9 7 14 19 12 26 -3 6 0 12 6 12 6 0 10 -5 8 -11 -1 -6
4 -14 11 -16 6 -3 12 2 12 11 0 21 19 31 33 16 9 -9 9 -11 -2 -8 -7 2 -16 -3
-19 -11 -2 -8 0 -11 6 -7 6 3 12 0 15 -6 3 -10 15 -7 46 10 24 12 48 22 55 22
7 0 27 21 45 46 21 30 37 44 46 40 8 -3 15 0 15 7 0 7 -11 13 -25 13 -18 1
-25 -3 -23 -14 2 -8 -3 -17 -10 -19 -8 -3 -10 1 -5 13 4 12 3 15 -5 10 -7 -4
-12 -2 -12 3 0 6 5 11 10 11 6 0 10 4 10 8 0 13 -41 8 -83 -10z"/>
<path d="M0 2879 c1 -87 2 -92 15 -69 20 34 20 134 0 150 -13 11 -15 1 -15
-81z"/>
<path d="M2374 2928 c-4 -6 -3 -8 4 -4 5 3 13 0 15 -6 3 -8 6 -6 6 5 1 19 -14
23 -25 5z"/>
<path d="M2411 2924 c0 -11 3 -14 6 -6 3 7 2 16 -1 19 -3 4 -6 -2 -5 -13z"/>
<path d="M1720 2912 c0 -4 6 -14 13 -21 10 -10 8 -14 -6 -22 -9 -6 -15 -15
-11 -20 4 -6 16 -1 30 12 24 22 24 23 4 41 -21 19 -30 23 -30 10z"/>
<path d="M433 2885 c-8 -22 6 -33 17 -15 13 20 12 30 0 30 -6 0 -13 -7 -17
-15z"/>
<path d="M1775 2867 c-24 -27 -29 -41 -12 -34 9 3 18 -1 22 -10 5 -14 8 -13
21 6 13 18 19 20 31 10 9 -8 12 -21 8 -36 -6 -26 9 -32 19 -7 11 30 6 44 -24
59 -22 11 -30 12 -30 3 0 -7 -5 -5 -12 4 -10 13 -15 14 -23 5z"/>
<path d="M343 2823 c-30 -6 -29 -19 3 -36 25 -13 23 -14 -32 -10 l-59 4 48
-26 c60 -32 56 -41 -6 -18 -39 14 -52 15 -80 5 -53 -19 -64 -16 -59 17 6 39
-20 47 -57 16 -16 -14 -35 -23 -43 -20 -9 4 -22 -9 -36 -34 -12 -21 -22 -41
-22 -44 0 -9 78 -19 90 -12 8 5 8 11 -1 21 -7 9 -8 14 -1 14 21 0 42 -12 36
-21 -8 -13 20 -11 34 3 9 9 15 9 23 1 9 -9 -11 -22 -76 -52 -48 -23 -91 -41
-96 -41 -5 0 -9 -19 -9 -43 l0 -43 105 -52 c57 -29 107 -52 110 -52 3 0 5 6 5
14 0 24 72 236 80 236 14 0 68 -31 81 -47 11 -13 11 -17 2 -20 -7 -3 -13 -17
-13 -31 -1 -26 -20 -62 -34 -62 -3 0 -6 10 -6 23 0 12 -14 -16 -30 -62 -16
-47 -29 -85 -27 -86 1 -1 89 -46 196 -99 106 -53 245 -124 308 -157 63 -34
116 -60 117 -58 2 2 40 76 84 164 l80 159 -19 25 c-20 25 -26 27 -88 33 -34 3
-36 1 -41 -30 l-5 -34 -18 31 c-10 17 -22 31 -28 31 -5 0 -9 7 -9 15 0 9 -7
18 -15 21 -8 4 -15 12 -15 20 0 8 -5 14 -11 14 -6 0 -8 -7 -5 -16 4 -11 1 -14
-11 -12 -9 2 -17 12 -19 23 -4 30 -42 52 -100 59 -63 7 -114 -2 -121 -21 -4
-10 -8 -11 -13 -3 -4 7 -21 -1 -49 -24 -48 -40 -61 -44 -61 -18 1 29 46 192
52 187 3 -3 8 8 10 25 4 24 -1 35 -20 51 -14 10 -29 19 -33 19 -5 0 -9 4 -9
10 0 5 8 6 18 3 14 -6 15 -4 5 9 -7 8 -10 18 -6 21 3 4 2 7 -3 8 -5 0 -25 1
-44 3 -19 1 -45 1 -57 -1z m77 -98 c11 -13 10 -14 -4 -9 -9 3 -16 10 -16 15 0
13 6 11 20 -6z m180 -195 c12 -8 11 -10 -7 -10 -13 0 -23 5 -23 10 0 13 11 13
30 0z m161 -26 c12 -15 11 -16 -11 -9 -35 10 -49 25 -23 25 11 0 27 -7 34 -16z
m-136 -41 c-9 -21 -23 -45 -31 -53 -14 -13 -15 -12 -9 11 7 26 13 59 14 72 1
4 10 7 21 7 20 0 20 -1 5 -37z m79 -33 c-2 -39 -3 -40 -20 -40 -9 0 -12 -5 -8
-12 4 -7 3 -8 -4 -4 -6 4 -8 14 -5 23 4 11 3 14 -5 9 -7 -4 -12 -2 -12 4 0 6
-5 8 -11 4 -8 -5 -8 -9 1 -14 9 -6 10 -12 1 -26 -9 -17 -13 -16 -10 2 0 4 -3
10 -8 13 -6 3 -6 19 -2 36 7 27 12 30 46 30 34 0 38 -3 37 -25z"/>
<path d="M991 2821 c-8 -5 -6 -15 8 -33 19 -23 64 -39 123 -42 9 -1 20 -4 24
-8 4 -5 19 -8 33 -7 25 1 25 1 -5 11 -16 5 -39 23 -49 38 -24 36 -103 60 -134
41z"/>
<path d="M1878 2805 c-13 -29 3 -55 33 -55 15 0 39 26 39 43 0 12 -34 16 -45
7 -11 -9 -12 -7 -8 9 7 29 -5 26 -19 -4z m47 -24 c-3 -6 -14 -11 -23 -11 -13
0 -13 2 4 14 21 15 30 14 19 -3z"/>
<path d="M1957 2784 c-4 -4 -7 -14 -7 -23 0 -11 3 -12 11 -4 6 6 10 16 7 23
-2 6 -7 8 -11 4z"/>
<path d="M690 2766 c0 -2 11 -6 25 -8 14 -3 25 -1 25 3 0 5 -11 9 -25 9 -14 0
-25 -2 -25 -4z"/>
<path d="M885 2760 c-3 -5 -2 -10 4 -10 5 0 13 5 16 10 3 6 2 10 -4 10 -5 0
-13 -4 -16 -10z"/>
<path d="M980 2738 c0 -4 13 -8 29 -8 17 0 33 -4 36 -10 9 -14 27 -12 23 3 -5
13 -88 28 -88 15z"/>
<path d="M655 2700 c-3 -5 -3 -15 1 -21 6 -11 23 6 24 24 0 10 -18 9 -25 -3z"/>
<path d="M1069 2696 c-49 -14 -77 -15 -97 -2 -7 4 -14 6 -16 5 -29 -44 -36
-62 -30 -84 5 -22 9 -24 23 -13 13 10 13 9 -1 -8 -21 -24 -25 -51 -5 -37 6 5
26 15 42 21 l30 12 -24 -20 c-23 -20 -23 -20 -2 -20 12 0 21 -5 21 -11 0 -6
-7 -8 -15 -5 -8 3 -22 9 -30 12 -9 4 -17 -1 -21 -12 -3 -11 -11 -29 -17 -42
-16 -34 11 -58 50 -45 23 8 28 15 28 42 1 35 21 57 63 68 12 3 22 10 22 17 1
15 45 46 78 55 35 10 41 30 6 23 -22 -4 -26 -2 -21 12 5 11 1 16 -13 16 -10 0
-22 -4 -25 -10 -3 -5 -16 -10 -28 -9 -18 0 -17 3 10 15 34 14 53 35 31 33 -7
0 -34 -6 -59 -13z m-99 -58 c0 -16 -3 -19 -11 -11 -6 6 -8 16 -5 22 11 17 16
13 16 -11z m45 2 c-3 -5 -10 -10 -16 -10 -5 0 -9 5 -9 10 0 6 7 10 16 10 8 0
12 -4 9 -10z m105 0 c0 -5 -2 -10 -4 -10 -3 0 -8 5 -11 10 -3 6 -1 10 4 10 6
0 11 -4 11 -10z"/>
<path d="M647 2639 c-32 -9 -57 -27 -57 -41 0 -5 17 1 37 13 25 16 38 19 41
11 2 -7 13 -11 25 -11 16 1 18 2 5 6 -9 2 -18 10 -20 17 -2 9 -11 10 -31 5z"/>
<path d="M1655 2621 c-41 -25 -79 -69 -95 -108 -7 -18 -16 -33 -21 -33 -5 0
-9 -4 -9 -9 0 -19 49 2 54 25 3 13 23 36 43 51 32 25 45 28 107 28 84 -1 138
-24 185 -82 28 -34 31 -35 31 -15 0 30 -27 82 -54 105 -66 57 -182 75 -241 38z"/>
<path d="M643 2589 c-65 -8 -63 -19 3 -20 32 -1 64 -1 71 0 6 1 14 -3 18 -9 3
-5 13 -10 22 -10 14 0 14 2 1 23 -16 23 -39 27 -115 16z"/>
<path d="M766 2587 c3 -10 9 -15 12 -12 3 3 0 11 -7 18 -10 9 -11 8 -5 -6z"/>
<path d="M486 2535 c4 -8 10 -12 15 -9 14 8 10 24 -6 24 -9 0 -12 -6 -9 -15z"/>
<path d="M807 2518 c2 -5 10 -8 18 -8 8 0 16 3 18 8 3 4 -5 7 -18 7 -13 0 -21
-3 -18 -7z"/>
<path d="M271 2444 c0 -11 3 -14 6 -6 3 7 2 16 -1 19 -3 4 -6 -2 -5 -13z"/>
<path d="M886 2415 c4 -8 8 -15 10 -15 2 0 4 7 4 15 0 8 -4 15 -10 15 -5 0 -7
-7 -4 -15z"/>
<path d="M1959 2383 c-1 -10 -1 -21 0 -25 0 -5 -3 -8 -8 -8 -5 0 -11 -14 -15
-30 -3 -19 -15 -34 -30 -41 -13 -6 -27 -23 -31 -37 -5 -20 -8 -23 -15 -12 -8
13 -12 12 -24 -5 -9 -11 -16 -22 -16 -25 0 -10 -45 -33 -78 -41 -23 -5 -37 -3
-47 8 -13 13 -15 10 -15 -24 0 -53 32 -103 67 -103 40 0 123 89 123 132 0 22
3 29 9 20 19 -31 54 -4 65 49 3 14 18 38 33 53 14 15 19 24 11 21 -12 -5 -14
-1 -11 19 4 17 1 26 -8 26 -10 0 -10 3 -1 12 15 15 16 28 2 28 -5 0 -11 -8
-11 -17z"/>
<path d="M1612 2342 c-3 -63 -16 -82 -57 -82 -23 0 -35 5 -39 18 -3 9 -3 -3 0
-27 7 -61 29 -101 57 -101 45 0 48 10 44 126 -1 60 -4 90 -5 66z"/>
</g>
</svg>
